<svg width="56" height="38" viewBox="0 0 56 38" fill="none" xmlns="http://www.w3.org/2000/svg">
<path d="M52 0.5H4C2.067 0.5 0.5 2.067 0.5 4V34C0.5 35.933 2.067 37.5 4 37.5H52C53.933 37.5 55.5 35.933 55.5 34V4C55.5 2.067 53.933 0.5 52 0.5Z" fill="white" stroke="#F3F3F3"/>
<path fill-rule="evenodd" clip-rule="evenodd" d="M16.971 14.18C16.564 14.66 15.912 15.038 15.26 14.984C15.179 14.335 15.498 13.647 15.871 13.221C16.279 12.728 16.991 12.377 17.568 12.35C17.636 13.025 17.372 13.687 16.971 14.18ZM17.562 15.112C16.987 15.079 16.464 15.284 16.04 15.449C15.768 15.556 15.538 15.646 15.362 15.646C15.165 15.646 14.925 15.551 14.655 15.444C14.302 15.304 13.898 15.145 13.475 15.153C12.504 15.166 11.601 15.713 11.106 16.584C10.087 18.327 10.841 20.907 11.825 22.325C12.307 23.027 12.884 23.797 13.645 23.77C13.979 23.758 14.22 23.656 14.469 23.551C14.755 23.43 15.053 23.304 15.518 23.304C15.967 23.304 16.252 23.427 16.525 23.544C16.785 23.656 17.035 23.764 17.406 23.757C18.193 23.743 18.689 23.054 19.171 22.352C19.691 21.598 19.919 20.862 19.954 20.751L19.958 20.738C19.9519 20.7346 19.9455 20.7315 19.939 20.729C19.766 20.649 18.437 20.045 18.424 18.421C18.411 17.059 19.478 16.369 19.646 16.261L19.666 16.247C18.987 15.247 17.928 15.139 17.562 15.112ZM23.013 23.682V13.154H26.984C29.035 13.154 30.467 14.558 30.467 16.611C30.467 18.664 29.008 20.083 26.93 20.083H24.656V23.683H23.013V23.682ZM24.656 14.532H26.55C27.976 14.532 28.79 15.288 28.79 16.618C28.79 17.948 27.976 18.712 26.543 18.712H24.656V14.532ZM35.891 22.419C35.457 23.244 34.5 23.764 33.468 23.764C31.94 23.764 30.874 22.859 30.874 21.494C30.874 20.144 31.906 19.367 33.814 19.252L35.864 19.131V18.55C35.864 17.692 35.301 17.226 34.296 17.226C33.468 17.226 32.864 17.651 32.741 18.3H31.261C31.309 16.936 32.599 15.943 34.344 15.943C36.224 15.943 37.446 16.923 37.446 18.442V23.682H35.925V22.42L35.891 22.419ZM33.909 22.514C33.033 22.514 32.477 22.095 32.477 21.454C32.477 20.792 33.013 20.407 34.038 20.346L35.864 20.231V20.826C35.864 21.812 35.022 22.514 33.909 22.514ZM42.49 24.094C41.832 25.938 41.078 26.546 39.476 26.546C39.354 26.546 38.946 26.532 38.851 26.506V25.242C38.953 25.256 39.204 25.269 39.333 25.269C40.06 25.269 40.467 24.966 40.718 24.175L40.868 23.709L38.084 16.044H39.802L41.737 22.264H41.77L43.705 16.044H45.375L42.49 24.094Z" fill="black"/>
</svg>
