<svg width="56" height="38" viewBox="0 0 56 38" fill="none" xmlns="http://www.w3.org/2000/svg">
<path d="M52 0.5H4C2.067 0.5 0.5 2.067 0.5 4V34C0.5 35.933 2.067 37.5 4 37.5H52C53.933 37.5 55.5 35.933 55.5 34V4C55.5 2.067 53.933 0.5 52 0.5Z" fill="white" stroke="#F3F3F3"/>
<path d="M33.127 27.528H23.133V9.987H33.127V27.528Z" fill="#FF5F00"/>
<path d="M23.773 18.756C23.773 15.197 25.479 12.028 28.136 9.98602C26.1111 8.4322 23.6284 7.59314 21.076 7.60002C14.769 7.60002 9.65601 12.595 9.65601 18.756C9.65601 24.916 14.769 29.911 21.076 29.911C23.741 29.911 26.193 29.02 28.136 27.526C25.479 25.484 23.773 22.314 23.773 18.756Z" fill="#EB001B"/>
<path d="M46.606 18.756C46.606 24.916 41.493 29.911 35.185 29.911C32.6328 29.9179 30.1502 29.0792 28.125 27.526C30.782 25.484 32.488 22.314 32.488 18.756C32.488 15.197 30.782 12.028 28.125 9.98601C30.1501 8.43246 32.6327 7.59344 35.185 7.60001C41.493 7.60001 46.606 12.595 46.606 18.756Z" fill="#F79E1B"/>
</svg>
