<svg width="91" height="39" viewBox="0 0 91 39" fill="none" xmlns="http://www.w3.org/2000/svg">
<path d="M84.3364 1H6.66364C3.5357 1 1 2.567 1 4.5V34.5C1 36.433 3.5357 38 6.66364 38H84.3364C87.4643 38 90 36.433 90 34.5V4.5C90 2.567 87.4643 1 84.3364 1Z" fill="white" stroke="#F3F3F3"/>
<mask id="mask0_65_508" style="mask-type:luminance" maskUnits="userSpaceOnUse" x="24" y="12" width="45" height="16">
<path d="M68.5 12H24V27.4783H68.5V12Z" fill="white"/>
</mask>
<g mask="url(#mask0_65_508)">
<path fill-rule="evenodd" clip-rule="evenodd" d="M56.6544 15.5989C56.4337 15.6913 56.1975 15.738 55.9592 15.7363C55.4782 15.7393 55.0157 15.5455 54.6734 15.1975C54.3311 14.8494 54.1371 14.3756 54.134 13.8803C54.134 13.3816 54.3264 12.9033 54.6687 12.5507C55.0111 12.1981 55.4754 12 55.9597 12C56.4439 12 56.9083 12.1981 57.2507 12.5507C57.5931 12.9033 57.7855 13.3816 57.7855 13.8803C57.7839 14.1256 57.7354 14.3683 57.6428 14.5944C57.5501 14.8204 57.4152 15.0255 57.2456 15.1979C57.076 15.3702 56.8751 15.5065 56.6544 15.5989ZM59.4617 13.5271L63.1821 12.843V27.3432H59.4617V13.5271ZM64.7794 13.5271V27.3432H68.5V12.843L64.7794 13.5271ZM57.8694 27.3436H54.1489V16.6739H57.8694V27.3436ZM29.6289 18.2453L29.6261 18.2451C29.1562 18.2134 28.0772 18.1408 28.0772 17.15C28.0772 15.952 29.6376 15.952 30.223 15.952C31.2527 15.952 32.5856 16.2608 33.5365 16.5504C33.5365 16.5504 34.0453 16.733 34.4928 16.9237V16.9471H34.5639L34.5213 16.9358L34.4928 16.9237V13.6643L34.506 13.6519C33.3833 13.2519 32.0767 12.8631 29.6551 12.8631C25.4794 12.8631 24 15.3423 24 17.4565C24 18.6781 24.5143 21.554 29.2962 21.8854L29.2991 21.8855C29.7073 21.9104 30.7778 21.9757 30.7778 22.9998C30.7778 23.8462 29.9024 24.3454 28.4153 24.3454C26.9925 24.3334 25.5836 24.0554 24.2572 23.525V26.9058C25.6895 27.2877 27.3036 27.4783 29.1955 27.4783C33.2782 27.4783 35.1045 25.1377 35.1045 22.8173C35.1078 20.1881 33.0616 18.4797 29.6289 18.2453ZM46.8595 21.3751C46.8595 18.2693 48.5972 16.7085 52.0212 16.5958C52.3342 16.5952 52.6468 16.6212 52.9556 16.6736V19.687C50.7868 19.7636 50.5964 20.6179 50.5964 22.4773L50.5647 27.3478H46.8442L46.8595 21.3751ZM42.0633 16.8098C41.9802 17.0205 41.2393 18.5982 39.8047 20.3664V12.843L36.0843 13.6634V27.3432H39.8047V23.106C40.9122 24.7963 41.5316 27.3466 41.5316 27.3466H46.1777C45.7247 25.4308 43.6609 21.8821 43.6609 21.8821C44.8261 20.3644 45.7239 18.648 46.3135 16.8109L42.0633 16.8098Z" fill="#811E68"/>
</g>
</svg>
