<svg width="56" height="38" viewBox="0 0 56 38" fill="none" xmlns="http://www.w3.org/2000/svg">
<path d="M52 0.5H4C2.067 0.5 0.5 2.067 0.5 4V34C0.5 35.933 2.067 37.5 4 37.5H52C53.933 37.5 55.5 35.933 55.5 34V4C55.5 2.067 53.933 0.5 52 0.5Z" fill="white" stroke="#F3F3F3"/>
<path d="M24.864 26.062H21.135L23.467 12.761H27.195L24.864 26.062ZM38.38 13.086C37.306 12.7057 36.1743 12.5142 35.035 12.52C31.353 12.52 28.761 14.33 28.745 16.92C28.715 18.83 30.601 19.891 32.012 20.528C33.455 21.179 33.945 21.604 33.945 22.184C33.93 23.076 32.779 23.486 31.706 23.486C30.218 23.486 29.42 23.274 28.208 22.779L27.717 22.566L27.195 25.552C28.07 25.919 29.681 26.246 31.353 26.26C35.265 26.26 37.813 24.477 37.843 21.717C37.857 20.203 36.861 19.043 34.713 18.095C33.409 17.487 32.61 17.076 32.61 16.453C32.626 15.887 33.286 15.308 34.758 15.308C35.7091 15.2813 36.6552 15.4547 37.535 15.817L37.872 15.958L38.38 13.086Z" fill="#15195A"/>
<path fill-rule="evenodd" clip-rule="evenodd" d="M45.053 12.76H47.937L50.944 26.061H47.492C47.492 26.061 47.155 24.533 47.048 24.066H42.26L41.477 26.061H37.565L43.103 13.864C43.487 13.001 44.163 12.761 45.052 12.761L45.053 12.76ZM44.823 17.628C44.823 17.628 43.642 20.585 43.334 21.35H46.434C46.28 20.685 45.574 17.5 45.574 17.5L45.314 16.355C45.204 16.65 45.045 17.055 44.938 17.329C44.8979 17.4283 44.8596 17.5273 44.823 17.628ZM4.98101 12.76H10.979C11.793 12.789 12.452 13.03 12.667 13.879L13.971 19.99L14.37 21.831L18.021 12.761H21.964L16.104 26.048H12.16L8.83801 14.49C7.69101 13.872 6.38301 13.375 4.92001 13.03L4.98101 12.76Z" fill="#15195A"/>
</svg>
