<svg width="429" height="91" viewBox="0 0 429 91" fill="none" xmlns="http://www.w3.org/2000/svg">
<g clipPath="url(#clip0_71_5)">
<path d="M45.4706 0C30.4383 0 17.0936 7.33694 8.80988 18.6126C7.57077 20.1766 6.4869 21.869 5.57937 23.6697C2.02494 30.146 0 37.5759 0 45.4706C0 70.5432 20.3979 90.9412 45.4706 90.9412C70.5433 90.9412 90.9412 70.5432 90.9412 45.4706C90.9412 20.3979 70.5433 0 45.4706 0ZM40.2909 56.6533C32.723 56.6533 26.5657 50.4184 26.5657 42.7547C26.5657 35.091 32.723 28.8561 40.2909 28.8561C47.8587 28.8561 54.016 35.091 54.016 42.7547C54.016 50.4184 47.8587 56.6533 40.2909 56.6533ZM40.2909 24.7813C30.4757 24.7813 22.4909 32.8437 22.4909 42.7547C22.4909 52.6657 30.4757 60.7281 40.2909 60.7281C40.402 60.7281 40.5094 60.7128 40.6196 60.7108C37.8174 61.8072 34.7767 62.4138 31.5969 62.4138C17.7511 62.4138 6.48594 51.0145 6.48594 37.0038C6.48594 32.905 7.45673 29.0334 9.16734 25.6007C10.0404 24.0118 11.0179 22.4881 12.0854 21.0333C16.6931 15.2805 23.7262 11.5938 31.5969 11.5938C45.024 11.5938 56.0227 22.3127 56.6773 35.7359C53.9642 29.3046 47.6422 24.7813 40.2909 24.7813ZM45.4706 86.8664C23.1292 86.8664 4.87596 69.0722 4.11121 46.9138C8.14959 58.3112 18.9442 66.4895 31.5969 66.4895C47.691 66.4895 60.7837 53.2627 60.7837 37.0048C60.7837 20.7468 47.6901 7.51997 31.596 7.51997C30.5926 7.51997 29.6007 7.57172 28.6223 7.67139C33.7723 5.36662 39.4715 4.07384 45.4696 4.07384C68.295 4.07384 86.8654 22.6443 86.8654 45.4696C86.8654 68.295 68.296 86.8664 45.4706 86.8664Z" fill="#111111"/>
<path d="M121.022 37.4678V57.3373H113.736V10.9752H121.022V30.8447H129.301V10.9752H136.719V57.3373H129.301V37.4678H121.022ZM148.707 21.6385V46.674C148.707 49.9856 150.164 51.244 152.482 51.244C154.8 51.244 156.257 49.9856 156.257 46.674V21.6385C156.257 18.3269 154.8 17.0685 152.482 17.0685C150.164 17.0685 148.707 18.3269 148.707 21.6385ZM141.421 46.2104V22.1021C141.421 14.6841 145.329 10.4453 152.482 10.4453C159.635 10.4453 163.543 14.6841 163.543 22.1021V46.2104C163.543 53.6284 159.635 57.8672 152.482 57.8672C145.329 57.8672 141.421 53.6284 141.421 46.2104ZM167.318 22.1021C167.318 14.6841 170.961 10.4453 178.047 10.4453C185.134 10.4453 188.777 14.6841 188.777 22.1021V23.5592H181.889V21.6385C181.889 18.3269 180.564 17.0685 178.246 17.0685C175.928 17.0685 174.603 18.3269 174.603 21.6385C174.603 25.0163 176.06 27.5331 180.829 31.7057C186.922 37.0705 188.843 40.9119 188.843 46.2104C188.843 53.6284 185.134 57.8672 177.981 57.8672C170.828 57.8672 167.119 53.6284 167.119 46.2104V43.3625H174.007V46.674C174.007 49.9856 175.464 51.1778 177.782 51.1778C180.1 51.1778 181.558 49.9856 181.558 46.674C181.558 43.2962 180.1 40.7794 175.332 36.6068C169.238 31.2421 167.318 27.4006 167.318 22.1021ZM190.896 17.5983V10.9752H213.415V17.5983H205.798V57.3373H198.513V17.5983H190.896ZM224.873 57.3373V50.7142C225.668 50.7804 226.595 50.7804 227.39 50.7804C229.708 50.7804 231.563 49.9194 231.563 46.3429V10.9752H238.848V45.813C238.848 55.0855 233.881 57.4698 228.383 57.4698C227.059 57.4698 226.065 57.4698 224.873 57.3373ZM259.976 10.9752L267.394 57.3373H260.042L258.784 48.9259H249.842L248.584 57.3373H241.895L249.313 10.9752H259.976ZM254.214 19.1879L250.77 42.6339H257.79L254.346 19.1879H254.214ZM280.839 10.9752L286.137 43.8923H286.27L291.171 10.9752H301.304V57.3373H294.416V24.089H294.284L289.383 57.3373H282.495L277.196 24.5527H277.064V57.3373H270.705V10.9752H280.839ZM305.676 22.1021C305.676 14.6841 309.319 10.4453 316.405 10.4453C323.492 10.4453 327.135 14.6841 327.135 22.1021V23.5592H320.247V21.6385C320.247 18.3269 318.922 17.0685 316.604 17.0685C314.286 17.0685 312.961 18.3269 312.961 21.6385C312.961 25.0163 314.418 27.5331 319.187 31.7057C325.28 37.0705 327.201 40.9119 327.201 46.2104C327.201 53.6284 323.492 57.8672 316.339 57.8672C309.186 57.8672 305.477 53.6284 305.477 46.2104V43.3625H312.365V46.674C312.365 49.9856 313.822 51.1778 316.14 51.1778C318.458 51.1778 319.916 49.9856 319.916 46.674C319.916 43.2962 318.458 40.7794 313.69 36.6068C307.597 31.2421 305.676 27.4006 305.676 22.1021ZM329.254 17.5983V10.9752H351.773V17.5983H344.156V57.3373H336.871V17.5983H329.254ZM368.596 10.9752L376.014 57.3373H368.662L367.404 48.9259H358.462L357.204 57.3373H350.515L357.933 10.9752H368.596ZM362.834 19.1879L359.39 42.6339H366.41L362.966 19.1879H362.834ZM393.565 40.0509H400.453V46.2104C400.453 53.6284 396.744 57.8672 389.591 57.8672C382.438 57.8672 378.729 53.6284 378.729 46.2104V22.1021C378.729 14.6841 382.438 10.4453 389.591 10.4453C396.744 10.4453 400.453 14.6841 400.453 22.1021V26.6058H393.565V21.6385C393.565 18.3269 392.108 17.0685 389.79 17.0685C387.472 17.0685 386.015 18.3269 386.015 21.6385V46.674C386.015 49.9856 387.472 51.1778 389.79 51.1778C392.108 51.1778 393.565 49.9856 393.565 46.674V40.0509ZM421.515 57.3373L414.428 38.8587L412.176 43.0975V57.3373H404.891V10.9752H412.176V31.0434H412.309L421.714 10.9752H428.999L418.866 31.6395L428.999 57.3373H421.515Z" fill="#111111"/>
<path d="M115.949 80.9031V77.2107L113.736 69.7623H115.567L116.888 74.8393H116.919L118.24 69.7623H119.912L117.699 77.2107V80.9031H115.949ZM129.165 72.3247V78.3407C129.165 79.1365 129.515 79.4389 130.072 79.4389C130.629 79.4389 130.979 79.1365 130.979 78.3407V72.3247C130.979 71.5289 130.629 71.2265 130.072 71.2265C129.515 71.2265 129.165 71.5289 129.165 72.3247ZM127.414 78.2293V72.4361C127.414 70.6536 128.353 69.635 130.072 69.635C131.791 69.635 132.73 70.6536 132.73 72.4361V78.2293C132.73 80.0118 131.791 81.0304 130.072 81.0304C128.353 81.0304 127.414 80.0118 127.414 78.2293ZM140.964 69.7623H142.715V78.3566C142.715 79.1524 143.065 79.4389 143.622 79.4389C144.179 79.4389 144.529 79.1524 144.529 78.3566V69.7623H146.185V78.2452C146.185 80.0278 145.293 81.0463 143.574 81.0463C141.856 81.0463 140.964 80.0278 140.964 78.2452V69.7623ZM166.855 69.7623C168.67 69.7623 169.45 70.6058 169.45 72.3247V72.7226C169.45 73.8685 169.099 74.5847 168.32 74.9508V74.9826C169.259 75.3486 169.625 76.1762 169.625 77.354V78.2612C169.625 79.98 168.717 80.9031 166.967 80.9031H164.213V69.7623H166.855ZM166.744 75.8898H165.964V79.3116H166.967C167.556 79.3116 167.874 79.041 167.874 78.2134V77.2426C167.874 76.2081 167.54 75.8898 166.744 75.8898ZM166.808 71.3539H165.964V74.2982H166.648C167.301 74.2982 167.699 74.0117 167.699 73.1205V72.4998C167.699 71.704 167.428 71.3539 166.808 71.3539ZM177.78 69.7623H179.53V78.3566C179.53 79.1524 179.88 79.4389 180.438 79.4389C180.995 79.4389 181.345 79.1524 181.345 78.3566V69.7623H183V78.2452C183 80.0278 182.109 81.0463 180.39 81.0463C178.671 81.0463 177.78 80.0278 177.78 78.2452V69.7623ZM191.378 80.9031V69.7623H193.128V80.9031H191.378ZM201.586 80.9031V69.7623H203.336V79.3116H206.217V80.9031H201.586ZM214.165 80.9031V69.7623H216.935C218.685 69.7623 219.545 70.7332 219.545 72.5157V78.1497C219.545 79.9323 218.685 80.9031 216.935 80.9031H214.165ZM216.903 71.3539H215.916V79.3116H216.903C217.46 79.3116 217.794 79.0251 217.794 78.2293V72.4361C217.794 71.6403 217.46 71.3539 216.903 71.3539ZM227.684 79.2161H229.371V80.9031H227.684V79.2161ZM251.999 80.9031L251.378 74.9667H251.347L250.726 80.9031H248.323L247.081 69.7623H248.784L249.707 78.5476H249.739L250.567 69.7623H252.254L253.113 78.6113H253.145L254.036 69.7623H255.564L254.323 80.9031H251.999ZM265.374 71.3539V74.4574H267.778V76.0489H265.374V79.3116H268.398V80.9031H263.624V69.7623H268.398V71.3539H265.374ZM286.316 80.9031V69.7623H289.085C290.836 69.7623 291.695 70.7332 291.695 72.5157V78.1497C291.695 79.9323 290.836 80.9031 289.085 80.9031H286.316ZM289.053 71.3539H288.067V79.3116H289.053C289.61 79.3116 289.945 79.0251 289.945 78.2293V72.4361C289.945 71.6403 289.61 71.3539 289.053 71.3539ZM301.744 71.3539V74.4574H304.147V76.0489H301.744V79.3116H304.768V80.9031H299.993V69.7623H304.768V71.3539H301.744ZM315.613 69.7623C317.363 69.7623 318.223 70.7332 318.223 72.5157V73.964C318.223 75.7465 317.363 76.7174 315.613 76.7174H314.785V80.9031H313.034V69.7623H315.613ZM315.613 71.3539H314.785V75.1258H315.613C316.17 75.1258 316.472 74.8712 316.472 74.0754V72.4043C316.472 71.6085 316.17 71.3539 315.613 71.3539ZM326.219 80.9031V69.7623H327.969V79.3116H330.85V80.9031H326.219ZM340.406 72.3247V78.3407C340.406 79.1365 340.756 79.4389 341.313 79.4389C341.87 79.4389 342.22 79.1365 342.22 78.3407V72.3247C342.22 71.5289 341.87 71.2265 341.313 71.2265C340.756 71.2265 340.406 71.5289 340.406 72.3247ZM338.655 78.2293V72.4361C338.655 70.6536 339.594 69.635 341.313 69.635C343.032 69.635 343.971 70.6536 343.971 72.4361V78.2293C343.971 80.0118 343.032 81.0304 341.313 81.0304C339.594 81.0304 338.655 80.0118 338.655 78.2293ZM353.685 80.9031V77.2107L351.473 69.7623H353.303L354.624 74.8393H354.656L355.977 69.7623H357.648L355.436 77.2107V80.9031H353.685ZM364.26 79.2161H365.947V80.9031H364.26V79.2161Z" fill="#111111"/>
</g>
<defs>
<clipPath id="clip0_71_5">
<rect width="429" height="90.9412" fill="white"/>
</clipPath>
</defs>
</svg>
