<svg width="91" height="91" viewBox="0 0 91 91" fill="none" xmlns="http://www.w3.org/2000/svg">
<path d="M45.4706 0C30.4383 0 17.0936 7.33694 8.80988 18.6126C7.57077 20.1766 6.4869 21.869 5.57937 23.6697C2.02494 30.146 0 37.5759 0 45.4706C0 70.5432 20.3979 90.9412 45.4706 90.9412C70.5433 90.9412 90.9412 70.5432 90.9412 45.4706C90.9412 20.3979 70.5433 0 45.4706 0ZM40.2909 56.6533C32.723 56.6533 26.5657 50.4184 26.5657 42.7547C26.5657 35.091 32.723 28.8561 40.2909 28.8561C47.8587 28.8561 54.016 35.091 54.016 42.7547C54.016 50.4184 47.8587 56.6533 40.2909 56.6533ZM40.2909 24.7813C30.4757 24.7813 22.4909 32.8437 22.4909 42.7547C22.4909 52.6657 30.4757 60.7281 40.2909 60.7281C40.402 60.7281 40.5094 60.7128 40.6196 60.7108C37.8174 61.8072 34.7767 62.4138 31.5969 62.4138C17.7511 62.4138 6.48594 51.0145 6.48594 37.0038C6.48594 32.905 7.45673 29.0334 9.16734 25.6007C10.0404 24.0118 11.0179 22.4881 12.0854 21.0333C16.6931 15.2805 23.7262 11.5938 31.5969 11.5938C45.024 11.5938 56.0227 22.3127 56.6773 35.7359C53.9642 29.3046 47.6422 24.7813 40.2909 24.7813ZM45.4706 86.8664C23.1292 86.8664 4.87596 69.0722 4.11121 46.9138C8.14959 58.3112 18.9442 66.4895 31.5969 66.4895C47.691 66.4895 60.7837 53.2627 60.7837 37.0048C60.7837 20.7468 47.6901 7.51997 31.596 7.51997C30.5926 7.51997 29.6007 7.57172 28.6223 7.67139C33.7723 5.36662 39.4715 4.07384 45.4696 4.07384C68.295 4.07384 86.8654 22.6443 86.8654 45.4696C86.8654 68.295 68.296 86.8664 45.4706 86.8664Z" fill="#111111"/>
</svg>
