<svg width="107" height="28" viewBox="0 0 107 28" fill="none" xmlns="http://www.w3.org/2000/svg">
<path d="M7.21965 23.849C5.95472 22.6926 5.58546 20.263 6.11245 18.503C7.02626 19.6126 8.29242 19.9643 9.60388 20.1625C11.6285 20.4688 13.6169 20.3543 15.4977 19.4289C15.7128 19.3231 15.9117 19.182 16.1468 19.0394C16.3233 19.5513 16.3692 20.0682 16.3076 20.5943C16.1577 21.8756 15.5201 22.8654 14.5059 23.6155C14.1004 23.9156 13.6713 24.1839 13.2525 24.467C11.9658 25.3364 11.6176 26.3561 12.1011 27.8396C12.1126 27.8757 12.1229 27.9118 12.1489 28C11.4919 27.706 11.0121 27.2779 10.6464 26.7151C10.2602 26.1209 10.0765 25.4638 10.0668 24.7528C10.062 24.4068 10.062 24.0576 10.0155 23.7166C9.90186 22.885 9.51142 22.5126 8.77592 22.491C8.02104 22.4692 7.42394 22.9356 7.2656 23.6706C7.2535 23.7269 7.23598 23.7826 7.21845 23.8482L7.21965 23.849Z" fill="#17191E"/>
<path d="M0 18.2095C0 18.2095 3.7457 16.385 7.50187 16.385L10.3339 7.62034C10.4399 7.19648 10.7495 6.90841 11.099 6.90841C11.4485 6.90841 11.7581 7.19648 11.8641 7.62034L14.6961 16.385C19.1447 16.385 22.1981 18.2095 22.1981 18.2095C22.1981 18.2095 15.8356 0.87724 15.8232 0.842464C15.6406 0.330036 15.3323 0 14.9167 0H7.28196C6.86636 0 6.57054 0.330036 6.37549 0.842464C6.36174 0.876596 0 18.2095 0 18.2095Z" fill="#17191E"/>
<path d="M39.492 12.6344C39.492 14.1702 37.5816 15.0875 34.9364 15.0875C33.2147 15.0875 32.606 14.6608 32.606 13.7649C32.606 12.8263 33.3617 12.3784 35.0832 12.3784C36.6369 12.3784 37.9593 12.3997 39.492 12.5917V12.6344ZM39.513 10.7358C38.5683 10.5225 37.1406 10.3946 35.4402 10.3946C30.4856 10.3946 28.1554 11.5678 28.1554 14.2982C28.1554 17.1353 29.7508 18.2232 33.4457 18.2232C36.5739 18.2232 38.694 17.4339 39.471 15.4928H39.5968C39.5758 15.9621 39.5548 16.4314 39.5548 16.794C39.5548 17.7966 39.7228 17.8819 40.5415 17.8819H44.4044C44.1944 17.2846 44.0684 15.5994 44.0684 14.1489C44.0684 12.5917 44.1314 11.4185 44.1314 9.83993C44.1314 6.61887 42.2002 4.57103 36.1539 4.57103C33.5507 4.57103 30.6536 5.019 28.4494 5.68028C28.6591 6.55486 28.9531 8.32538 29.1001 9.47727C31.0106 8.58136 33.7187 8.19739 35.8182 8.19739C38.715 8.19739 39.513 8.85867 39.513 10.2026V10.7358Z" fill="#17191E"/>
<path d="M50.1119 13.5303C49.5871 13.5943 48.8731 13.5943 48.1384 13.5943C47.3617 13.5943 46.648 13.5729 46.165 13.5089C46.165 13.6796 46.144 13.8716 46.144 14.0422C46.144 16.7087 47.8864 18.2658 54.0167 18.2658C59.7898 18.2658 61.6582 16.73 61.6582 14.0209C61.6582 11.4611 60.4198 10.2026 54.9405 9.92524C50.6786 9.73325 50.3009 9.26397 50.3009 8.73068C50.3009 8.11207 50.8466 7.79209 53.7017 7.79209C56.6619 7.79209 57.4596 8.19739 57.4596 9.05066V9.24263C57.8793 9.22129 58.6353 9.19999 59.4121 9.19999C60.1468 9.19999 60.9445 9.22129 61.4065 9.26397C61.4065 9.07197 61.4275 8.90134 61.4275 8.75201C61.4275 5.61627 58.8241 4.59236 53.7857 4.59236C48.1174 4.59236 46.207 5.97892 46.207 8.68801C46.207 11.1198 47.7397 12.6344 53.177 12.869C57.1866 12.997 57.6276 13.445 57.6276 14.0636C57.6276 14.7248 56.9766 15.0235 54.1637 15.0235C50.9306 15.0235 50.1119 14.5755 50.1119 13.6583V13.5303Z" fill="#17191E"/>
<path d="M68.5874 2.28856C67.055 3.71779 64.3048 5.14699 62.7724 5.53096C62.7934 6.32022 62.7934 7.77076 62.7934 8.56003L64.1998 8.58136C64.1788 10.0959 64.1578 11.9304 64.1578 13.1463C64.1578 15.9834 65.6483 18.1166 70.2879 18.1166C72.2403 18.1166 73.542 17.9032 75.1584 17.5619C74.9904 16.5167 74.8014 14.9168 74.7384 13.7009C73.7727 14.0209 72.5553 14.1916 71.2116 14.1916C69.3431 14.1916 68.5874 13.6796 68.5874 12.2077C68.5874 10.9278 68.5874 9.73326 68.6084 8.62404C71.0018 8.64537 73.395 8.68801 74.8014 8.73069C74.7804 7.62144 74.8224 6.02157 74.8854 4.955C72.849 4.99767 70.5608 5.01901 68.6714 5.01901C68.6924 4.08042 68.7134 3.1845 68.7344 2.28856H68.5874Z" fill="#17191E"/>
<path d="M81.1261 7.92007C81.1471 6.81082 81.1681 5.87226 81.1891 4.95498H76.9692C77.0322 6.78952 77.0322 8.66669 77.0322 11.4184C77.0322 14.1702 77.0112 16.0687 76.9692 17.8819H81.7978C81.7138 16.602 81.6928 14.4475 81.6928 12.613C81.6928 9.71193 82.8685 8.88 85.5347 8.88C86.7734 8.88 87.6551 9.02932 88.4318 9.30663C88.4528 8.21872 88.6628 6.1069 88.7886 5.16832C87.9908 4.93368 87.1091 4.78435 86.0384 4.78435C83.7502 4.76302 82.0708 5.7016 81.2941 7.94141L81.1261 7.92007Z" fill="#17191E"/>
<path d="M102.146 11.3331C102.146 13.6583 100.467 14.7462 97.8217 14.7462C95.1975 14.7462 93.5181 13.7222 93.5181 11.3331C93.5181 8.94398 95.2185 8.04807 97.8217 8.04807C100.446 8.04807 102.146 9.00799 102.146 11.3331ZM106.534 11.2265C106.534 6.59753 102.923 4.52838 97.8217 4.52838C92.6993 4.52838 89.2142 6.59753 89.2142 11.2265C89.2142 15.8341 92.4683 18.3086 97.8006 18.3086C103.175 18.3086 106.534 15.8341 106.534 11.2265Z" fill="#17191E"/>
</svg>
