<svg width="84" height="20" viewBox="0 0 84 20" fill="none" xmlns="http://www.w3.org/2000/svg">
<path d="M16.0645 17.8887C16.0911 17.8887 16.1025 17.922 16.0811 17.9387C14.3372 19.2783 12.1989 20.0031 9.99989 20C7.80074 20.0036 5.66232 19.2787 3.91862 17.9387C3.89729 17.9227 3.90929 17.8887 3.93529 17.8887H16.0645ZM18.6724 14.982C18.3231 15.5887 17.9125 16.1554 17.4478 16.6734C17.4391 16.683 17.4285 16.6906 17.4167 16.6959C17.4049 16.7012 17.3921 16.704 17.3791 16.704H2.62131C2.6082 16.704 2.59525 16.7011 2.5833 16.6957C2.57136 16.6903 2.56068 16.6825 2.55197 16.6727C2.08585 16.1532 1.6754 15.5863 1.32732 14.9814C1.32422 14.9757 1.32263 14.9694 1.32269 14.963C1.32276 14.9565 1.32449 14.9502 1.32771 14.9447C1.33093 14.9391 1.33553 14.9345 1.34107 14.9312C1.3466 14.9279 1.35289 14.9262 1.35932 14.926H18.6404C18.6691 14.926 18.6871 14.9574 18.6724 14.982ZM19.8018 11.9881C19.6839 12.5704 19.5143 13.1411 19.2951 13.6934C19.2897 13.7072 19.2803 13.719 19.268 13.7274C19.2558 13.7357 19.2413 13.7401 19.2264 13.7401H0.773328C0.758507 13.7401 0.744013 13.7357 0.731755 13.7274C0.719497 13.719 0.710051 13.7072 0.704662 13.6934C0.485447 13.1411 0.31589 12.5704 0.198001 11.9881C0.197035 11.9828 0.197235 11.9773 0.198588 11.9721C0.199942 11.9668 0.202415 11.9619 0.205839 11.9578C0.209262 11.9536 0.213553 11.9502 0.218416 11.9478C0.223278 11.9455 0.228596 11.9442 0.234001 11.9441H19.7664C19.7898 11.9441 19.8071 11.9654 19.8024 11.9881M9.93322 0.000222917C15.4865 -0.0364433 19.9998 4.45484 19.9998 10.0001C19.9998 10.2441 19.9913 10.4857 19.9744 10.7248C19.9738 10.7341 19.9696 10.7428 19.9628 10.7492C19.9561 10.7556 19.9471 10.7593 19.9378 10.7594H0.0626696C0.0533289 10.7593 0.0443812 10.7556 0.037593 10.7492C0.0308049 10.7428 0.0266695 10.7341 0.0260033 10.7248C0.00880291 10.4867 0.000130788 10.2481 3.62954e-06 10.0094C-0.00466298 4.56817 4.49195 0.0362225 9.93322 0.000222917Z" fill="#FF983B"/>
<path d="M25.9707 3.95557H31.462C34.0706 3.95557 35.3233 5.15955 35.3233 7.0702C35.3233 8.32618 34.6366 9.23884 33.6766 9.66817C34.8613 10.0115 35.8213 10.9415 35.8213 12.4715C35.8213 14.6554 34.3119 15.8954 31.4613 15.8954H25.9707V3.95557ZM30.844 5.93421H28.424V8.89351H30.844C32.1646 8.89351 32.818 8.49818 32.818 7.41353C32.818 6.32954 32.166 5.93421 30.844 5.93421ZM31.2233 10.7682H28.4273V13.9168H31.2233C32.58 13.9168 33.3166 13.4875 33.3166 12.3515C33.3166 11.2155 32.578 10.7682 31.2233 10.7682Z" fill="black"/>
<path d="M42.3502 15.8747V14.5434C41.7288 15.55 40.5535 16.0447 39.2215 16.0447C37.5629 16.0447 36.2676 15.158 36.2676 13.5534C36.2676 12.052 37.4089 11.1981 39.0835 10.9067L42.1942 10.3781V10.1741C42.1942 9.25341 41.5022 8.84342 40.5175 8.84342C39.4802 8.84342 38.9789 9.30475 38.9109 10.0214H36.5782C36.6649 8.21342 38.1169 7.23877 40.5195 7.23877C43.1628 7.23877 44.4762 8.31476 44.4762 10.5667V15.8747H42.3502ZM42.1962 12.3587V11.9667L39.8629 12.3767C38.9309 12.5314 38.4976 12.8027 38.4976 13.452C38.4976 14.0147 38.9989 14.3734 39.8635 14.3734C40.9869 14.3734 42.1962 13.656 42.1962 12.3587Z" fill="black"/>
<path d="M49.1266 7.23877C51.1813 7.23877 52.9466 8.10809 52.9799 9.9694H50.6846C50.6333 9.33808 50.0686 8.84275 49.0579 8.84275C48.2346 8.84275 47.6526 9.18341 47.6526 9.69607C47.6526 10.2094 48.046 10.3614 48.7833 10.4981L50.7186 10.8747C52.2606 11.1634 53.1326 11.95 53.1326 13.3147C53.1326 14.9693 51.7792 16.0447 49.2793 16.0447C46.78 16.0447 45.308 14.936 45.2227 13.144H47.6186C47.686 13.8607 48.2346 14.4407 49.3653 14.4407C50.4106 14.4407 50.9053 14.0487 50.9053 13.554C50.9053 13.0594 50.5119 12.8547 49.7746 12.718L47.8393 12.3594C46.2993 12.0707 45.4253 11.2687 45.4253 9.90207C45.4253 8.26476 46.9153 7.24077 49.1226 7.24077L49.1266 7.23877Z" fill="black"/>
<path d="M57.8789 7.23877C60.6149 7.23877 62.2375 8.86075 62.2375 11.5894V12.324H55.7763C55.8283 13.3654 56.6136 14.3374 57.8616 14.3374C58.7682 14.3374 59.5196 13.894 59.7242 13.144H62.1162C61.7415 15.0213 60.0476 16.0447 57.8596 16.0447C55.3303 16.0447 53.4316 14.4747 53.4316 11.6427C53.4316 8.99742 55.1576 7.24077 57.8749 7.24077L57.8789 7.23877ZM59.8949 10.7541C59.8429 9.66274 58.9882 8.87675 57.9283 8.87675C56.7663 8.87675 55.9289 9.74607 55.7923 10.7541H59.8949Z" fill="black"/>
<path d="M70.6647 15.8954V13.4175H64.7754V11.4208L70.202 3.95557H72.984V15.8954H70.6647ZM70.6647 6.51954L67.1267 11.4748H70.6647V6.51954Z" fill="black"/>
<path d="M79.7895 13.4161H73.8789V11.4201L79.3235 3.95557H82.1155V11.4735H83.5801V13.4181H82.1155V15.8954H79.7895V13.4161ZM79.7895 6.51887L76.2389 11.4735H79.7895V6.51887Z" fill="black"/>
</svg>
