<svg width="72" height="20" viewBox="0 0 72 20" fill="none" xmlns="http://www.w3.org/2000/svg">
<path d="M21.9856 17.6411C17.7297 17.6411 15.5645 15.1572 15.5645 12.0525C15.5645 8.37643 18.5013 5.0481 22.7571 5.0481C27.013 5.0481 29.1783 7.53193 29.1783 10.6367C29.1783 14.3128 26.2415 17.6411 21.9856 17.6411ZM22.1598 13.6918C23.6531 13.6918 24.5989 12.3505 24.5989 10.8603C24.5989 9.66804 23.8274 8.99739 22.5829 8.99739C21.0896 8.99739 20.1439 10.3387 20.1439 11.8289C20.1439 13.0212 20.9154 13.6918 22.1598 13.6918Z" fill="black"/>
<path d="M33.7103 17.3434H29.2305L32.889 0.776245H37.3688L33.7103 17.3434Z" fill="black"/>
<path fill-rule="evenodd" clip-rule="evenodd" d="M8.78071 17.6414C7.41186 17.6414 6.06791 17.1447 5.29637 16.0766L5.02424 17.3363L0 20.0001L0.54239 17.3363L4.2013 0.776245H8.68117L7.38698 6.61325C8.43225 5.47068 9.40293 5.04843 10.6473 5.04843C13.3353 5.04843 15.1272 6.81195 15.1272 10.0409C15.1272 13.3692 13.0615 17.6414 8.78071 17.6414ZM10.498 10.9848C10.498 12.5248 9.40293 13.6922 7.9843 13.6922C7.18788 13.6922 6.46612 13.3941 5.99324 12.8725L6.69011 9.81743C7.21276 9.29575 7.81008 8.99773 8.50694 8.99773C9.57716 8.99773 10.498 9.79258 10.498 10.9848Z" fill="black"/>
<path d="M42.0365 17.6412C39.4481 17.6412 37.6064 16.6973 37.6064 14.6109C37.6064 14.4371 37.6313 14.0148 37.7059 13.6671L38.6766 9.22104H36.6855L37.5566 5.34623H39.5477L40.2694 2.06757L45.2846 0L44.7493 2.07263L44.0275 5.34623H46.4666L45.5954 9.22104H43.1564L42.5093 12.152C42.4595 12.3755 42.4347 12.6239 42.4347 12.7232C42.4347 13.2945 42.7831 13.6919 43.5546 13.6919C43.7786 13.6919 44.1021 13.6174 44.1768 13.5677V17.1444C43.704 17.4674 42.8578 17.6412 42.0365 17.6412Z" fill="black"/>
<path d="M47.5441 17.6915C46.9477 17.6915 46.4727 17.1954 46.4727 16.6001C46.4727 15.9055 47.0692 15.3213 47.7651 15.3213C48.3616 15.3213 48.8366 15.8174 48.8366 16.4126C48.8366 17.1072 48.2401 17.6915 47.5441 17.6915Z" fill="black"/>
<path d="M55.0323 17.5477H53.0439L53.6624 14.7475C53.6846 14.6483 53.7288 14.4719 53.7288 14.3396C53.7288 13.9758 53.4084 13.8435 53.088 13.8435C52.6572 13.8435 52.3589 14.0639 52.1491 14.2514L51.42 17.5477H49.4316L50.6136 12.2229H52.602L52.4584 12.8293C52.845 12.4764 53.3311 12.0906 54.1374 12.0906C55.2531 12.0906 55.8938 12.697 55.8938 13.4907C55.8938 13.5789 55.8607 13.8214 55.8386 13.9206L55.0323 17.5477Z" fill="black"/>
<path d="M59.1624 17.6799C57.4391 17.6799 56.2461 16.82 56.2461 15.2546C56.2461 13.5568 57.5496 12.0906 59.4164 12.0906C60.742 12.0906 61.9129 12.8954 61.9129 14.516C61.9129 14.8798 61.8466 15.2987 61.7915 15.4971H58.2124V15.5081C58.2124 15.5854 58.5327 16.1696 59.3059 16.1696C59.7257 16.1696 60.2228 16.0704 60.4658 15.905L61.0734 17.1949C60.5321 17.5367 59.8031 17.6799 59.1624 17.6799ZM58.4002 14.2404H60.1565V14.2073C60.1565 14.0529 59.9687 13.601 59.3391 13.601C58.8089 13.601 58.4664 14.0089 58.4002 14.2404Z" fill="black"/>
<path d="M68.8509 17.548H66.6857L66.4649 14.5713L64.9515 17.548H62.7863L62.4219 12.2231H64.4102L64.4654 15.1557L66.0561 12.2231H67.8346L68.1107 15.1557L69.4695 12.2231H71.5793L68.8509 17.548Z" fill="black"/>
</svg>
