<svg width="107" height="28" viewBox="0 0 107 28" fill="none" xmlns="http://www.w3.org/2000/svg">
<g clip-path="url(#clip0_6_88)">
<path fill-rule="evenodd" clip-rule="evenodd" d="M96.4083 1.76908L104.454 6.37404C104.925 6.6436 105.316 7.03264 105.588 7.50183C105.86 7.97101 106.004 8.5037 106.004 9.046V19.2318C106.004 19.7444 105.866 20.2476 105.605 20.6889C105.344 21.1302 104.97 21.4935 104.52 21.7408L95.8565 26.509C95.4033 26.7584 94.8934 26.8869 94.3759 26.882C93.8585 26.8771 93.3511 26.7391 92.9027 26.4811L85.2885 22.1017C84.6663 21.7438 84.1494 21.2284 83.79 20.6073C83.4307 19.9863 83.2414 19.2815 83.2414 18.5641V9.9332C83.2414 9.14035 83.4473 8.36107 83.8388 7.67149C84.2304 6.98191 84.7943 6.40563 85.4754 5.99895L92.4996 1.8051C93.0893 1.453 93.7622 1.26408 94.4491 1.25775C95.136 1.25142 95.8122 1.4279 96.4083 1.76908Z" fill="#EBB951" stroke="#FCD804" stroke-width="2.45948"/>
<path fill-rule="evenodd" clip-rule="evenodd" d="M68.6627 1.63417L77.0701 6.41637C77.5211 6.67286 77.8961 7.04413 78.1569 7.49243C78.4178 7.94072 78.5551 8.45004 78.555 8.96859V18.9584C78.5552 19.5325 78.4017 20.0963 78.1107 20.5913C77.8196 21.0863 77.4015 21.4947 76.8995 21.7741L68.4915 26.4532C68.0135 26.7192 67.4745 26.8564 66.9274 26.8512C66.3803 26.8461 65.8439 26.6988 65.371 26.4238L57.7872 22.0126C57.1803 21.6597 56.6768 21.1539 56.3268 20.5457C55.9768 19.9375 55.7926 19.2482 55.7926 18.5466V10.0306C55.7926 9.18662 56.0121 8.35713 56.4296 7.62347C56.8471 6.88981 57.4483 6.27717 58.1742 5.84563L65.2019 1.66711C65.7245 1.3564 66.3202 1.18966 66.9282 1.18387C67.5363 1.17809 68.1351 1.33346 68.6635 1.63417H68.6627Z" fill="#33BA91" stroke="#00A88A" stroke-width="2.45948"/>
<path fill-rule="evenodd" clip-rule="evenodd" d="M41.2276 1.50169L49.6292 6.43571C50.0575 6.68727 50.4131 7.04574 50.661 7.47596C50.9088 7.90619 51.0406 8.3934 51.0432 8.88983L51.0955 18.8202C51.099 19.4357 50.9369 20.0409 50.6263 20.5725C50.3156 21.1041 49.8678 21.5426 49.3297 21.8422L41.0785 26.4332C40.5897 26.7052 40.0384 26.8455 39.4789 26.8402C38.9193 26.8349 38.3708 26.6843 37.8872 26.4031L30.3026 21.9918C29.7067 21.6452 29.2122 21.1485 28.8685 20.5512C28.5248 19.954 28.3439 19.2771 28.3439 18.5881V9.77637C28.3438 9.00743 28.5405 8.25123 28.9151 7.57957C29.2898 6.90792 29.8301 6.34309 30.4846 5.93873L37.6012 1.54179C38.1448 1.20603 38.7698 1.02486 39.4088 1.01779C40.0479 1.01073 40.6767 1.17804 41.2276 1.50169Z" fill="#0594CB" stroke="#0083C0" stroke-width="2.45948"/>
<path fill-rule="evenodd" clip-rule="evenodd" d="M14.0333 1.72797L22.2328 6.49299C22.7099 6.77022 23.1058 7.16772 23.381 7.64576C23.6561 8.12379 23.8009 8.66561 23.8009 9.21708V18.987C23.8008 19.5966 23.6385 20.1952 23.3306 20.7215C23.0226 21.2477 22.5802 21.6827 22.0486 21.9818L13.9107 26.5606C13.3799 26.8592 12.7805 27.0147 12.1713 27.0118C11.5622 27.0089 10.9642 26.8478 10.4363 26.5441L2.94196 22.2339C2.36341 21.9011 1.88284 21.4219 1.54867 20.8444C1.21449 20.267 1.03852 19.6118 1.03847 18.9448V9.67324C1.03841 9.0016 1.21024 8.34111 1.53763 7.75452C1.86503 7.16794 2.3371 6.67475 2.909 6.32184L10.2764 1.77739C10.8395 1.43013 11.4864 1.24213 12.148 1.23342C12.8097 1.22472 13.4612 1.39565 14.0333 1.72797Z" fill="#FF4088" stroke="#C9177E" stroke-width="2.45948"/>
<path fill-rule="evenodd" clip-rule="evenodd" d="M94.6531 6.38414C98.8664 6.38414 102.287 9.80215 102.287 14.0115C102.287 18.2222 98.8664 21.6395 94.6531 21.6395C90.4404 21.6395 87.019 18.2215 87.019 14.0115C87.019 9.80215 90.4404 6.38414 94.6531 6.38414ZM94.6531 9.2178C97.3012 9.2178 99.4505 11.3661 99.4505 14.0115C99.4499 15.2826 98.9443 16.5016 98.0447 17.4005C97.1452 18.2993 95.9253 18.8045 94.6531 18.8051C92.0049 18.8051 89.8556 16.6575 89.8556 14.0115C89.8562 12.7404 90.3617 11.5215 91.2611 10.6227C92.1606 9.72387 93.3803 9.21856 94.6523 9.2178H94.6531ZM74.3138 13.8947C74.3138 17.2733 73.673 18.258 72.3923 19.6652C71.1116 21.0723 69.4131 21.6395 67.2968 21.6395C65.3617 21.6395 63.803 20.9534 62.4513 19.7611C60.9549 18.4399 59.8655 16.3925 59.8655 14.1074C59.8655 11.861 60.7055 9.91959 62.194 8.47376C63.4998 7.20839 65.4434 6.38414 67.4473 6.38414C69.8675 6.38414 72.3802 7.52849 73.9289 9.78782L71.6549 11.7084C70.6909 9.91601 69.2941 9.31232 67.296 9.25504C65.0865 9.19202 62.6541 11.2981 62.8347 14.1067C62.9351 15.6778 63.6697 18.3783 67.2036 18.8739C69.0598 19.1338 71.1711 17.1538 71.1711 16.0782H67.683V13.3927H74.3123V13.8926L74.3138 13.8947ZM33.9935 7.11672H37.0243V15.1494C37.0243 16.424 37.0594 17.2497 37.1296 17.6278C37.2508 18.2351 37.4744 18.6569 37.9302 19.0242C38.3867 19.3916 38.9192 19.4962 39.7104 19.4962C40.5131 19.4962 40.7825 19.3716 41.1911 19.0235C41.5988 18.6762 41.8447 18.3461 41.9278 17.8398C42.0102 17.3335 42.1478 16.4935 42.1478 15.3205V7.11672H45.1779V14.9066C45.1779 16.6869 45.1012 17.9451 44.9479 18.6798C44.7945 19.4152 44.5121 20.0354 44.1008 20.5417C43.6894 21.0473 43.139 21.4504 42.4503 21.7505C41.7608 22.0505 40.8621 22.2002 39.752 22.2002C38.4118 22.2002 37.3962 22.0369 36.7047 21.7097C36.0123 21.3824 35.4648 20.9577 35.0635 20.435C34.6614 19.9122 34.3969 19.3644 34.2694 18.7908C34.0845 17.9415 33.9913 16.6869 33.9913 15.0276V7.11672H33.9935ZM6.73032 21.4776V6.63836H9.83711V12.0436H14.9915V6.63836H18.1076V21.4776H14.9915V14.9889H9.83711V21.4776H6.73032Z" fill="white"/>
</g>
<defs>
<clipPath id="clip0_6_88">
<rect width="107" height="28" fill="white"/>
</clipPath>
</defs>
</svg>
