<svg width="116" height="20" viewBox="0 0 116 20" fill="none" xmlns="http://www.w3.org/2000/svg">
<mask id="mask0_71_67" style="mask-type:alpha" maskUnits="userSpaceOnUse" x="0" y="0" width="18" height="20">
<path fill-rule="evenodd" clip-rule="evenodd" d="M5.34414 0.905029C8.295 0.905029 10.6883 3.31412 10.6883 6.28685V8.3323H12.4669C15.4178 8.3323 17.8111 10.7414 17.8111 13.7141C17.8111 16.6868 15.4187 19.095 12.4669 19.095H0V6.28594C0 3.31503 2.39237 0.905029 5.34414 0.905029Z" fill="url(#paint0_linear_71_67)"/>
</mask>
<g mask="url(#mask0_71_67)">
<g filter="url(#filter0_f_71_67)">
<path d="M7.81471 22.7242C14.4735 22.7242 19.8716 17.3027 19.8716 10.6151C19.8716 3.92741 14.4735 -1.49402 7.81471 -1.49402C1.15587 -1.49402 -4.24219 3.92741 -4.24219 10.6151C-4.24219 17.3027 1.15587 22.7242 7.81471 22.7242Z" fill="#4B73FF"/>
</g>
<g filter="url(#filter1_f_71_67)">
<path d="M9.1386 16.0787C17.6666 16.0787 24.5799 10.6572 24.5799 3.96956C24.5799 -2.7181 17.6666 -8.13953 9.1386 -8.13953C0.610588 -8.13953 -6.30273 -2.7181 -6.30273 3.96956C-6.30273 10.6572 0.610588 16.0787 9.1386 16.0787Z" fill="#FF66F4"/>
</g>
<g filter="url(#filter2_f_71_67)">
<path d="M11.6565 12.326C18.3153 12.326 23.7134 7.56473 23.7134 1.69143C23.7134 -4.18187 18.3153 -8.94312 11.6565 -8.94312C4.99767 -8.94312 -0.400391 -4.18187 -0.400391 1.69143C-0.400391 7.56473 4.99767 12.326 11.6565 12.326Z" fill="#FF0105"/>
</g>
<g filter="url(#filter3_f_71_67)">
<path d="M9.3529 11.2497C13.3577 11.2497 16.6042 7.98907 16.6042 3.96693C16.6042 -0.0552082 13.3577 -3.3158 9.3529 -3.3158C5.3481 -3.3158 2.10156 -0.0552082 2.10156 3.96693C2.10156 7.98907 5.3481 11.2497 9.3529 11.2497Z" fill="#FE7B02"/>
</g>
</g>
<path d="M98.8385 19.0945C97.5175 19.0945 96.3704 18.8418 95.397 18.3364C94.423 17.8224 93.6636 17.0515 93.1187 16.0236C92.5816 14.9964 92.3134 13.7239 92.314 12.2064C92.314 10.7639 92.5946 9.5206 93.1558 8.47636C93.717 7.42363 94.4927 6.62363 95.483 6.07636C96.4733 5.52969 97.5999 5.25636 98.8629 5.25636C100.076 5.25636 101.153 5.52151 102.094 6.05181C103.035 6.58272 103.765 7.35363 104.285 8.36454C104.814 9.37666 105.078 10.587 105.078 11.9955C105.078 12.5009 105.074 12.9027 105.065 13.2009H95.1988V10.59H102.676L101.264 11.0755C101.264 10.3955 101.165 9.82757 100.967 9.37181C100.777 8.90757 100.497 8.55939 100.126 8.32727C99.7545 8.09515 99.3046 7.97909 98.776 7.97909C98.2233 7.97909 97.7363 8.11606 97.3151 8.39C96.9029 8.65484 96.5813 9.05272 96.3502 9.58363C96.1269 10.1139 96.0152 10.7521 96.0152 11.4982V12.7782C96.0152 13.5412 96.1308 14.1879 96.3619 14.7182C96.593 15.2485 96.9231 15.6506 97.3522 15.9245C97.7818 16.1894 98.2896 16.3218 98.8756 16.3218C99.5195 16.3218 100.052 16.1561 100.472 15.8245C100.894 15.4851 101.158 15.0085 101.264 14.3945H105.015C104.9 15.3564 104.574 16.1897 104.038 16.8945C103.509 17.5988 102.803 18.1412 101.921 18.5218C101.037 18.9036 100.01 19.0945 98.8385 19.0945ZM87.4414 0.904541H91.1925V18.7336H87.4414V0.904541ZM81.0582 19.0945C80.3485 19.0945 79.7131 18.9703 79.1519 18.7218C78.5969 18.4707 78.112 18.0864 77.7398 17.6027C77.3524 17.0967 77.0637 16.4748 76.8736 15.7373L77.27 15.8491V18.7336H73.5561V5.61727H77.3071V8.55181L76.8862 8.62636C77.0763 7.92151 77.3651 7.3206 77.7525 6.82363C78.149 6.31818 78.6317 5.93272 79.2008 5.66727C79.7704 5.39454 80.4101 5.25787 81.1197 5.25727C82.1848 5.25727 83.1093 5.53484 83.8932 6.09C84.6771 6.64515 85.2796 7.44515 85.7008 8.49C86.1214 9.52636 86.3317 10.7573 86.3317 12.1827C86.3317 13.6003 86.1172 14.8312 85.6881 15.8754C85.2597 16.9118 84.6448 17.7073 83.8434 18.2618C83.0517 18.8176 82.1233 19.0945 81.0582 19.0945ZM79.8941 16.2227C80.4553 16.2227 80.926 16.057 81.3062 15.7255C81.6936 15.3939 81.9824 14.9258 82.1724 14.3209C82.3704 13.7155 82.4693 13.0027 82.4693 12.1827C82.4693 11.3621 82.3704 10.6491 82.1724 10.0436C81.9824 9.43939 81.6936 8.97121 81.3062 8.63909C80.926 8.29969 80.4553 8.13 79.8941 8.13C79.3414 8.13 78.8671 8.29969 78.4712 8.63909C78.0826 8.9706 77.7893 9.44303 77.5914 10.0564C77.3934 10.6618 77.2945 11.3706 77.2945 12.1827C77.2945 13.0027 77.3934 13.7155 77.5914 14.3209C77.7905 14.9258 78.0838 15.3939 78.4712 15.7255C78.8671 16.057 79.3414 16.2227 79.8941 16.2227ZM73.5561 0.90545H77.3071V5.61727H73.5561V0.90545ZM64.1405 19.0945C63.3234 19.0945 62.589 18.933 61.9373 18.61C61.3105 18.3029 60.7825 17.8246 60.4139 17.23C60.0512 16.6245 59.8696 15.9197 59.869 15.1155C59.869 13.8888 60.228 12.9524 60.9462 12.3064C61.6643 11.6518 62.7001 11.2248 64.0536 11.0255L66.3193 10.7018C66.773 10.6351 67.1321 10.5524 67.3964 10.4536C67.6607 10.3548 67.8547 10.2221 67.9784 10.0555C68.1015 9.88151 68.1634 9.66181 68.164 9.39636C68.164 9.12363 68.0898 8.87515 67.9413 8.6509C67.8013 8.41878 67.5865 8.23636 67.2968 8.10363C67.0162 7.96303 66.6738 7.89272 66.2695 7.89272C65.6268 7.89272 65.1108 8.06242 64.7216 8.40181C64.3342 8.73333 64.1239 9.18939 64.0907 9.77H60.2166C60.2492 8.89121 60.5132 8.11181 61.0086 7.43181C61.5119 6.74454 62.2092 6.21 63.1005 5.82818C63.9918 5.44636 65.0236 5.25575 66.1961 5.25636C67.4254 5.25636 68.4651 5.45939 69.3154 5.86545C70.165 6.26363 70.8047 6.83575 71.2343 7.58181C71.6712 8.32727 71.8897 9.21818 71.8897 10.2545V15.7255C71.8897 16.3133 71.931 16.8603 72.0137 17.3664C72.1042 17.8633 72.2321 18.1785 72.3975 18.3118V18.7336H68.4989C68.4017 18.337 68.3313 17.9343 68.288 17.5282C68.2377 17.057 68.209 16.5838 68.202 16.11L68.8085 15.8491C68.6442 16.4502 68.3483 17.0068 67.9422 17.4782C67.5295 17.9673 66.9969 18.3612 66.3446 18.66C65.7019 18.9491 64.9666 19.0939 64.1405 19.0945ZM65.5281 16.3345C66.0561 16.3345 66.5223 16.2185 66.9266 15.9864C67.3309 15.7451 67.6405 15.4136 67.8553 14.9918C68.0786 14.5694 68.1902 14.0885 68.1902 13.5491V11.8336L68.4989 12.0073C68.3046 12.268 68.0498 12.4771 67.7567 12.6164C67.467 12.7582 67.0748 12.8785 66.5799 12.9773L65.6268 13.1636C64.9914 13.2885 64.5128 13.4794 64.1912 13.7364C63.8774 13.9927 63.7205 14.3533 63.7205 14.8182C63.7205 15.2818 63.8895 15.6506 64.2274 15.9245C64.5659 16.1973 64.9995 16.3345 65.5281 16.3345ZM47.1115 5.61727H51.0979L54.5267 16.8691H53.3264L56.6194 5.61727H60.4936L55.9749 18.7336H51.803L47.1115 5.61727ZM41.2487 19.0945C39.9525 19.0945 38.8135 18.8127 37.8317 18.2491C36.8577 17.6854 36.1025 16.8815 35.566 15.8373C35.038 14.7924 34.774 13.5697 34.774 12.1691C34.774 10.7685 35.038 9.5503 35.566 8.51454C36.1031 7.46969 36.8583 6.66545 37.8317 6.10181C38.8135 5.53818 39.9525 5.25636 41.2487 5.25636C42.5449 5.25636 43.6794 5.53818 44.6521 6.10181C45.6267 6.66545 46.378 7.46939 46.906 8.51363C47.4425 9.55 47.7107 10.7685 47.7107 12.1691C47.7107 13.5697 47.4422 14.7924 46.9051 15.8373C46.3771 16.8815 45.6264 17.6854 44.653 18.2491C43.6791 18.8127 42.5443 19.0945 41.2487 19.0945ZM41.2487 16.21C41.793 16.21 42.2592 16.0609 42.6472 15.7627C43.0346 15.4555 43.3318 15.0036 43.5388 14.4073C43.7452 13.8024 43.8483 13.0564 43.8483 12.1691C43.8483 10.8515 43.6212 9.85272 43.1668 9.17272C42.713 8.48484 42.0733 8.1409 41.2478 8.1409C40.7041 8.1409 40.2337 8.29424 39.8366 8.6009C39.4492 8.89909 39.1523 9.3506 38.9459 9.95545C38.7396 10.553 38.6364 11.2909 38.6364 12.1691C38.6364 13.0473 38.7396 13.7891 38.9459 14.3945C39.1523 15 39.4492 15.4561 39.8366 15.7627C40.2331 16.0609 40.7038 16.21 41.2487 16.21ZM23.8105 0.904541H27.6974V15.9555L27.004 15.1473H32.2413C35.5533 15.1473 35.1008 18.7336 35.1008 18.7336H23.8105V0.904541Z" fill="black"/>
<defs>
<filter id="filter0_f_71_67" x="-10.2122" y="-7.46402" width="36.0533" height="36.1581" filterUnits="userSpaceOnUse" color-interpolation-filters="sRGB">
<feFlood flood-opacity="0" result="BackgroundImageFix"/>
<feBlend mode="normal" in="SourceGraphic" in2="BackgroundImageFix" result="shape"/>
<feGaussianBlur stdDeviation="2.985" result="effect1_foregroundBlur_71_67"/>
</filter>
<filter id="filter1_f_71_67" x="-12.2727" y="-14.1095" width="42.8228" height="36.1581" filterUnits="userSpaceOnUse" color-interpolation-filters="sRGB">
<feFlood flood-opacity="0" result="BackgroundImageFix"/>
<feBlend mode="normal" in="SourceGraphic" in2="BackgroundImageFix" result="shape"/>
<feGaussianBlur stdDeviation="2.985" result="effect1_foregroundBlur_71_67"/>
</filter>
<filter id="filter2_f_71_67" x="-6.37039" y="-14.9131" width="36.0533" height="33.209" filterUnits="userSpaceOnUse" color-interpolation-filters="sRGB">
<feFlood flood-opacity="0" result="BackgroundImageFix"/>
<feBlend mode="normal" in="SourceGraphic" in2="BackgroundImageFix" result="shape"/>
<feGaussianBlur stdDeviation="2.985" result="effect1_foregroundBlur_71_67"/>
</filter>
<filter id="filter3_f_71_67" x="-3.86844" y="-9.2858" width="26.442" height="26.5054" filterUnits="userSpaceOnUse" color-interpolation-filters="sRGB">
<feFlood flood-opacity="0" result="BackgroundImageFix"/>
<feBlend mode="normal" in="SourceGraphic" in2="BackgroundImageFix" result="shape"/>
<feGaussianBlur stdDeviation="2.985" result="effect1_foregroundBlur_71_67"/>
</filter>
<linearGradient id="paint0_linear_71_67" x1="5.99405" y1="4.10139" x2="11.4621" y2="19.0726" gradientUnits="userSpaceOnUse">
<stop offset="0.025" stop-color="#FF8E63"/>
<stop offset="0.56" stop-color="#FF7EB0"/>
<stop offset="0.95" stop-color="#4B73FF"/>
</linearGradient>
</defs>
</svg>
