<svg width="138" height="28" viewBox="0 0 138 28" fill="none" xmlns="http://www.w3.org/2000/svg">
<g clip-path="url(#clip0_4_75)">
<path d="M91.7381 0.0115814H115.775V4.44501H106.24V27.7687H101.472V4.44501H91.7381V0.0115814Z" fill="black"/>
<path d="M52.206 0.0115814V4.44501H32.9386V11.577H48.4334V16.0104H32.9386V23.3352H52.206V27.7687H28.1709V4.44501H28.1689V0.0115814H52.206Z" fill="black"/>
<path d="M64.2085 0.0231476H57.9691L80.3174 27.7802H86.575L75.3995 13.9112L86.5572 0.0443245L80.3174 0.05396L72.2756 10.0344L64.2085 0.0231476Z" fill="black"/>
<path d="M70.6112 19.8502L67.4866 15.968L57.9512 27.8014H64.2085L70.6112 19.8502Z" fill="black"/>
<path fill-rule="evenodd" clip-rule="evenodd" d="M28.338 27.7686L5.9596 0H0V27.7571H4.76769V5.93306L22.3485 27.7686H28.338Z" fill="black"/>
<path d="M116.847 27.5991C116.498 27.5991 116.201 27.4783 115.952 27.2365C115.704 26.9948 115.581 26.7021 115.584 26.3554C115.581 26.0182 115.704 25.7287 115.952 25.487C116.201 25.2452 116.498 25.1243 116.847 25.1243C117.183 25.1243 117.477 25.2452 117.726 25.487C117.978 25.7287 118.103 26.0182 118.107 26.3554C118.103 26.5844 118.045 26.7943 117.929 26.982C117.81 27.1729 117.658 27.3224 117.467 27.4305C117.28 27.5419 117.073 27.5991 116.847 27.5991Z" fill="black"/>
<path d="M124.985 15.9059H127.097V24.0396C127.094 24.7871 126.932 25.4265 126.616 25.9641C126.296 26.5017 125.854 26.912 125.285 27.2015C124.72 27.4877 124.057 27.6341 123.305 27.6341C122.616 27.6341 122 27.51 121.45 27.2683C120.901 27.0265 120.465 26.6639 120.145 26.1868C119.822 25.7096 119.664 25.1148 119.664 24.4022H121.78C121.783 24.714 121.854 24.9843 121.99 25.2102C122.125 25.436 122.313 25.6078 122.552 25.7287C122.794 25.8496 123.072 25.91 123.385 25.91C123.725 25.91 124.015 25.84 124.251 25.6969C124.487 25.5569 124.668 25.347 124.794 25.067C124.917 24.7903 124.981 24.4468 124.985 24.0396V15.9059Z" fill="black"/>
<path d="M135.79 19.0868C135.739 18.5938 135.513 18.2089 135.118 17.9353C134.721 17.6586 134.207 17.5218 133.577 17.5218C133.135 17.5218 132.754 17.5886 132.437 17.719C132.121 17.8526 131.875 18.0307 131.707 18.2566C131.539 18.4825 131.455 18.7401 131.449 19.0296C131.449 19.2714 131.507 19.4813 131.62 19.6562C131.733 19.8344 131.885 19.9839 132.082 20.1048C132.275 20.2288 132.492 20.3306 132.728 20.4133C132.967 20.496 133.206 20.566 133.445 20.6233L134.547 20.8936C134.989 20.9954 135.419 21.1322 135.829 21.3072C136.239 21.4789 136.611 21.6984 136.937 21.9624C137.263 22.2265 137.522 22.5446 137.712 22.9167C137.903 23.2889 138 23.7247 138 24.2273C138 24.9048 137.826 25.4997 137.473 26.015C137.121 26.5271 136.614 26.9279 135.949 27.2174C135.286 27.5037 134.485 27.65 133.542 27.65C132.631 27.65 131.836 27.5101 131.168 27.2301C130.496 26.9534 129.972 26.5462 129.594 26.0118C129.216 25.4774 129.013 24.8253 128.984 24.0587H131.077C131.106 24.4595 131.236 24.7935 131.455 25.0639C131.678 25.3311 131.969 25.5283 132.324 25.6619C132.683 25.7923 133.083 25.8591 133.526 25.8591C133.988 25.8591 134.395 25.7891 134.747 25.6523C135.096 25.5156 135.37 25.3247 135.567 25.0766C135.768 24.8317 135.868 24.5422 135.871 24.2114C135.868 23.9092 135.777 23.6579 135.603 23.4606C135.425 23.2635 135.18 23.098 134.866 22.9644C134.55 22.8309 134.182 22.71 133.762 22.605L132.424 22.2678C131.458 22.0229 130.693 21.6507 130.134 21.1513C129.572 20.6519 129.294 19.9903 129.294 19.16C129.294 18.4793 129.481 17.8813 129.859 17.3691C130.234 16.857 130.748 16.4594 131.397 16.1763C132.05 15.89 132.786 15.75 133.606 15.75C134.44 15.75 135.17 15.89 135.8 16.1763C136.43 16.4594 136.924 16.8538 137.283 17.3564C137.641 17.859 137.829 18.4347 137.839 19.0868H135.79Z" fill="black"/>
</g>
<defs>
<clipPath id="clip0_4_75">
<rect width="138" height="28" fill="white"/>
</clipPath>
</defs>
</svg>
