<svg width="86" height="20" viewBox="0 0 86 20" fill="none" xmlns="http://www.w3.org/2000/svg">
<g clipPath="url(#clip0_71_68)">
<path d="M8.21684 6.46764H1.23312C0.545419 6.46764 0 5.91894 0 5.2535V1.21414C0 0.537024 0.557276 0 1.23312 0H6.98372C7.67142 0 8.21684 0.548698 8.21684 1.21414V6.46764Z" fill="#FD5402"/>
<path d="M15.7072 13.5129H8.22461V6.45728H15.7072C16.4313 6.45728 17.0284 7.05478 17.0284 7.77941V12.1908C17.0284 12.9281 16.4313 13.5129 15.7072 13.5129Z" fill="#FD5402"/>
<path d="M6.98372 20H1.23312C0.557276 20 0 19.4523 0 18.788V14.7443C0 14.0801 0.557276 13.5323 1.23312 13.5323H8.21684V18.788C8.21684 19.4523 7.65957 20 6.98372 20Z" fill="#FD5402"/>
<path d="M30.9713 5.94819L30.403 6.47998H29.8347L29.6578 5.80637C29.6199 5.64093 29.4557 5.53456 29.2663 5.53456H25.6289C25.4015 5.53456 25.2248 5.70001 25.2248 5.88909V7.05905C25.2248 7.25995 25.4015 7.41358 25.6289 7.41358H27.776V12.897H25.2753C25.0479 12.897 24.8711 13.0624 24.8711 13.2515V14.4215C24.8711 14.6224 25.0479 14.776 25.2753 14.776H33.1437C33.371 14.776 33.5478 14.6106 33.5478 14.4215V13.2515C33.5478 13.0506 33.371 12.897 33.1437 12.897H30.2515V9.02082C30.2515 7.93359 30.9335 7.36631 32.2722 7.36631H34.4446C34.6719 7.36631 34.8487 7.20086 34.8487 7.01178V5.72365C34.8487 5.52275 34.6719 5.36912 34.4446 5.36912H33.1563C32.209 5.3573 31.4639 5.52275 30.9713 5.94819Z" fill="black"/>
<path d="M40.3073 5.36853C37.1324 5.36853 35.4316 7.01599 35.4316 10.3601C35.4316 13.7165 37.1199 15.364 40.2443 15.364C42.6632 15.364 44.2255 14.3804 44.6412 12.696C44.7042 12.4624 44.5026 12.2412 44.2507 12.2412H42.7389C42.5751 12.2412 42.4239 12.3395 42.3609 12.487C42.0963 13.2124 41.3404 13.5567 40.3199 13.5567C38.7325 13.5567 37.9765 12.7084 37.8758 10.729H44.7672C45.1452 7.02829 43.5704 5.36853 40.3073 5.36853ZM37.9514 9.22897C38.1908 7.77828 38.9341 7.10205 40.2947 7.10205C41.7436 7.10205 42.4239 7.85205 42.4617 9.22897H37.9514Z" fill="black"/>
<path d="M52.1686 5.36853C51.3485 5.36853 50.7576 5.54508 50.2993 5.9688L49.7325 6.49845H49.2139L49.0209 5.81579C48.9727 5.66278 48.828 5.54508 48.6471 5.54508H47.5617C47.3446 5.54508 47.1758 5.70986 47.1758 5.89818V17.9507C47.1758 18.1508 47.3446 18.3038 47.5617 18.3038H49.1536C49.3707 18.3038 49.5396 18.139 49.5396 17.9507V15.3377L49.3345 13.9371L49.8651 13.8194L50.432 14.349C50.8782 14.7493 51.4209 14.9494 52.2289 14.9494C54.5686 14.9494 55.9796 13.3721 55.9796 10.159C55.9675 6.94572 54.5686 5.36853 52.1686 5.36853ZM51.3847 13.019C50.1908 13.019 49.5275 12.4188 49.5275 11.2771V9.01728C49.5275 7.87558 50.1787 7.27528 51.3847 7.27528C52.8439 7.27528 53.5072 8.16981 53.5072 10.1354C53.4952 12.1245 52.8439 13.019 51.3847 13.019Z" fill="black"/>
<path d="M85.3232 6.75133V5.53382C85.3232 5.32475 85.1512 5.16488 84.9301 5.16488H80.6662V2.80364C80.6662 2.59457 80.4942 2.43469 80.273 2.43469H78.6513C78.4302 2.43469 78.2582 2.60687 78.2582 2.80364V5.16488H75.7389C75.5177 5.16488 75.3457 5.33705 75.3457 5.53382V6.75133C75.3457 6.9604 75.5177 7.12028 75.7389 7.12028H78.2582V10.736C78.2582 13.503 79.5605 14.782 82.3616 14.782H84.6475C84.8687 14.782 85.0407 14.6098 85.0407 14.413V13.1956C85.0407 12.9865 84.8687 12.8266 84.6475 12.8266H82.731C81.2068 12.8266 80.6662 12.224 80.6662 10.7236V7.13258H84.9301C85.1512 7.12028 85.3232 6.9481 85.3232 6.75133Z" fill="black"/>
<path d="M65.5755 12.8851H63.1119V2.20515C63.1119 2.00229 62.9429 1.84717 62.7255 1.84717H57.8949C57.6775 1.84717 57.5084 2.01422 57.5084 2.20515V3.38651C57.5084 3.58937 57.6775 3.7445 57.8949 3.7445H60.7449V12.8851H57.5447C57.3273 12.8851 57.1582 13.0521 57.1582 13.2431V14.4244C57.1582 14.6273 57.3273 14.7824 57.5447 14.7824H65.5755C65.7929 14.7824 65.962 14.6154 65.962 14.4244V13.2431C65.962 13.0402 65.7929 12.8851 65.5755 12.8851Z" fill="black"/>
<path d="M72.5391 1.69617H70.3534C70.1348 1.69617 69.9648 1.86647 69.9648 2.06109V3.60595C69.9648 3.81274 70.1348 3.97088 70.3534 3.97088H72.5391C72.7576 3.97088 72.9276 3.80058 72.9276 3.60595V2.06109C72.9155 1.8543 72.7455 1.69617 72.5391 1.69617Z" fill="black"/>
<path d="M72.8346 12.9468V5.73345C72.8346 5.52666 72.6646 5.36853 72.446 5.36853H67.5526C67.334 5.36853 67.1641 5.53883 67.1641 5.73345V6.93771C67.1641 7.14451 67.334 7.30264 67.5526 7.30264H70.4546V12.9468H67.5526C67.334 12.9468 67.1641 13.1171 67.1641 13.3118V14.516C67.1641 14.7228 67.334 14.881 67.5526 14.881H75.8095C76.028 14.881 76.1981 14.7107 76.1981 14.516V13.3118C76.1981 13.105 76.028 12.9468 75.8095 12.9468H72.8346Z" fill="black"/>
</g>
<defs>
<clipPath id="clip0_71_68">
<rect width="86" height="20" fill="white"/>
</clipPath>
</defs>
</svg>
