<svg width="28" height="28" viewBox="0 0 28 28" fill="none" xmlns="http://www.w3.org/2000/svg">
<g clip-path="url(#clip0_6_85)">
<path d="M27.2926 4.12546L14.7268 26.9289C14.4674 27.3997 13.8009 27.4024 13.5375 26.9339L0.722657 4.12766C0.435771 3.61709 0.865969 2.99866 1.43607 3.10207L14.0152 5.38392C14.0955 5.39848 14.1776 5.39834 14.2579 5.3835L26.574 3.10535C27.1422 3.00025 27.5744 3.61389 27.2926 4.12546Z" fill="url(#paint0_linear_6_85)"/>
<path d="M20.0074 0.109124L10.7084 1.95829C10.5555 1.98868 10.4424 2.12013 10.4331 2.27788L9.86112 12.0823C9.84767 12.3132 10.0566 12.4924 10.2787 12.4405L12.8677 11.8341C13.1099 11.7774 13.3288 11.9939 13.279 12.2411L12.5099 16.0636C12.4581 16.3209 12.6961 16.5409 12.9437 16.4646L14.5427 15.9715C14.7906 15.8951 15.0288 16.1157 14.9764 16.3732L13.754 22.3775C13.6775 22.7531 14.1698 22.9579 14.3751 22.6359L14.5122 22.4208L22.0895 7.0743C22.2164 6.81735 21.9976 6.52435 21.7195 6.57882L19.0546 7.10078C18.8042 7.14978 18.5911 6.9131 18.6618 6.66444L20.4011 0.545237C20.4719 0.296165 20.2581 0.0592771 20.0074 0.109124Z" fill="url(#paint1_linear_6_85)"/>
</g>
<defs>
<linearGradient id="paint0_linear_6_85" x1="0.409773" y1="2.28711" x2="16.3491" y2="23.6172" gradientUnits="userSpaceOnUse">
<stop stop-color="#41D1FF"/>
<stop offset="1" stop-color="#BD34FE"/>
</linearGradient>
<linearGradient id="paint1_linear_6_85" x1="13.2932" y1="0.611168" x2="16.2051" y2="20.2939" gradientUnits="userSpaceOnUse">
<stop stop-color="#FFEA83"/>
<stop offset="0.0833333" stop-color="#FFDD35"/>
<stop offset="1" stop-color="#FFA800"/>
</linearGradient>
<clipPath id="clip0_6_85">
<rect width="28" height="28" fill="white"/>
</clipPath>
</defs>
</svg>
